<svg xmlns="http://www.w3.org/2000/svg" viewBox="0 0 256 256" role="img" aria-label="Transmission Fluid Check">
  <defs>
    <linearGradient id="bg" x1="0" y1="0" x2="1" y2="1">
      <stop offset="0%" stop-color="#0f5ea8" />
      <stop offset="100%" stop-color="#124273" />
    </linearGradient>
    <linearGradient id="oil" x1="0" y1="0" x2="1" y2="1">
      <stop offset="0%" stop-color="#ff5c3b" />
      <stop offset="100%" stop-color="#d7341a" />
    </linearGradient>
  </defs>

  <rect x="8" y="8" width="240" height="240" rx="52" fill="url(#bg)" />

  <g transform="rotate(-25 128 128)">
    <rect x="112" y="32" width="32" height="20" rx="8" fill="#e9f2fb" />
    <rect x="122" y="52" width="12" height="132" rx="6" fill="#d9e6f3" />
    <rect x="102" y="170" width="52" height="56" rx="18" fill="#eef5fd" />

    <rect x="112" y="178" width="32" height="36" rx="10" fill="url(#oil)" />

    <rect x="106" y="182" width="8" height="2" rx="1" fill="#7f97ae" />
    <rect x="106" y="190" width="8" height="2" rx="1" fill="#7f97ae" />
    <rect x="106" y="198" width="8" height="2" rx="1" fill="#7f97ae" />
    <rect x="106" y="206" width="8" height="2" rx="1" fill="#7f97ae" />
    <rect x="142" y="182" width="8" height="2" rx="1" fill="#7f97ae" />
    <rect x="142" y="190" width="8" height="2" rx="1" fill="#7f97ae" />
    <rect x="142" y="198" width="8" height="2" rx="1" fill="#7f97ae" />
    <rect x="142" y="206" width="8" height="2" rx="1" fill="#7f97ae" />
  </g>
</svg>
